<?xml version="1.0" encoding="utf-8"?>
<!-- Generator: Adobe Illustrator 15.0.0, SVG Export Plug-In . SVG Version: 6.00 Build 0)  -->
<!DOCTYPE svg PUBLIC "-//W3C//DTD SVG 1.1//EN" "http://www.w3.org/Graphics/SVG/1.1/DTD/svg11.dtd">
<svg version="1.1" id="Layer_1" xmlns="http://www.w3.org/2000/svg" xmlns:xlink="http://www.w3.org/1999/xlink" x="0px" y="0px"
	 width="100px" height="100px" viewBox="0 0 100 100" enable-background="new 0 0 100 100" xml:space="preserve">
<g>
	<path fill="#EF0000" d="M49.795,1.102c-27.018,0-49,21.982-49,49c0,27.017,21.982,49,49,49s49-21.982,49-49
		C98.795,23.084,76.813,1.102,49.795,1.102z M49.795,95.019c-24.768,0-44.916-20.149-44.916-44.917
		c0-24.768,20.148-44.917,44.916-44.917s44.917,20.149,44.917,44.917C94.712,74.869,74.563,95.019,49.795,95.019z"/>
	<g>
		<path fill="#EF0000" d="M67.547,32.3c-0.791-0.764-2.046-0.764-2.837,0l0,0L32.043,64.967c-0.811,0.783-0.833,2.076-0.05,2.887
			c0.783,0.812,2.076,0.834,2.887,0.051c0.018-0.017,0.034-0.033,0.051-0.051l32.666-32.667
			C68.381,34.376,68.358,33.083,67.547,32.3z"/>
		<path fill="#EF0000" d="M31.993,35.187L64.66,67.854c0.016,0.018,0.033,0.034,0.05,0.051c0.812,0.783,2.104,0.761,2.887-0.051
			c0.784-0.811,0.761-2.104-0.05-2.887L34.88,32.3l0,0c-0.791-0.764-2.046-0.764-2.837,0C31.233,33.083,31.21,34.376,31.993,35.187z
			"/>
	</g>
</g>
</svg>
