<?xml version="1.0" encoding="utf-8"?>
<!-- Generator: Adobe Illustrator 15.0.0, SVG Export Plug-In . SVG Version: 6.00 Build 0)  -->
<!DOCTYPE svg PUBLIC "-//W3C//DTD SVG 1.1//EN" "http://www.w3.org/Graphics/SVG/1.1/DTD/svg11.dtd">
<svg version="1.1" id="Layer_1" xmlns="http://www.w3.org/2000/svg" xmlns:xlink="http://www.w3.org/1999/xlink" x="0px" y="0px"
	 width="100px" height="100px" viewBox="0 0 100 100" enable-background="new 0 0 100 100" xml:space="preserve">
<g>
	<path fill="#179BD7" d="M49.795,1.102c-27.018,0-49,21.982-49,49c0,27.017,21.982,49,49,49c27.018,0,49-21.981,49-49
		S76.813,1.102,49.795,1.102z M49.795,95.02c-24.768,0-44.917-20.149-44.917-44.917S25.027,5.185,49.795,5.185
		c24.768,0,44.917,20.149,44.917,44.917C94.712,74.869,74.563,95.02,49.795,95.02z"/>
	<g>
		<path fill="#179BD7" d="M75.559,32.3c-0.793-0.764-2.047-0.764-2.838,0l0,0L40.054,64.967c-0.811,0.783-0.833,2.076-0.05,2.887
			c0.784,0.813,2.076,0.834,2.887,0.052c0.017-0.017,0.034-0.033,0.05-0.052l32.667-32.667C76.391,34.376,76.368,33.083,75.559,32.3
			z"/>
		<path fill="#179BD7" d="M23.983,51.807l16.021,16.047c0.017,0.019,0.033,0.035,0.05,0.052c0.811,0.782,2.104,0.761,2.887-0.052
			c0.784-0.811,0.761-2.104-0.05-2.887L26.869,48.92l0,0c-0.791-0.764-2.045-0.764-2.836,0
			C23.222,49.704,23.199,50.996,23.983,51.807z"/>
	</g>
</g>
</svg>
